# xmcd
# 
# Track frame offsets:
#     150
#     15722
#     30734
#     42308
#     63579
#     82846
#     99741
# 
# Disc length: 1508
# 
# Revision: 0
# Processed by: cddbd v1.5.2PL0 Copyright (c) Steve Scherf et al.
# Submitted via: fre:ac v1.0.17
# 
DISCID=5105e207
DTITLE=1 - 1
DYEAR=1
DGENRE=1
TTITLE0=Redneck girl
TTITLE1=Count to 3
TTITLE2=Sold (Cowboy charleston)
TTITLE3=They don't care about us
TTITLE4=Any man of mine
TTITLE5=Valerie (Cowboy Charleston)
TTITLE6=Country Walking Cotton eye joe
EXTD=1
EXTT0=
EXTT1=
EXTT2=
EXTT3=
EXTT4=
EXTT5=
EXTT6=
PLAYORDER=
